HIERARCHY
ROOT Hip
{
	OFFSET 0 1.131 0.0052
	CHANNELS 6 Xposition Yposition Zposition Xrotation Yrotation Zrotation
	JOINT Abdomen
	{
		OFFSET 0 -0.047353 -0.05
		CHANNELS 3 Xrotation Zrotation Yrotation
		JOINT Chest
		{
			OFFSET 0 0.132153 0.007439
			CHANNELS 3 Xrotation Zrotation Yrotation
			JOINT Neck
			{
				OFFSET 0 0.3078 0.006161
				CHANNELS 3 Xrotation Zrotation Yrotation
				JOINT Head_comp
				{
					OFFSET 0 0.0884 0.013
					CHANNELS 3 Xrotation Yrotation Zrotation
					End Site
					{
						OFFSET -0 0.156 0.0624
					}
				}
			}
			JOINT Left_Collar
			{
				OFFSET 0.02282 0.250342 0.017193
				CHANNELS 2 Yrotation Zrotation
				JOINT Left_Shoulder
				{
					OFFSET 0.15421 0 0
					CHANNELS 3 Xrotation Yrotation Zrotation
					JOINT Left_Forearm
					{
						OFFSET 0.265212 0 0
						CHANNELS 2 Yrotation Xrotation
						JOINT Left_Hand
						{
							OFFSET 0.27571 0 0
							CHANNELS 2 Zrotation Yrotation
							JOINT L1ProxPhalanx
							{
								OFFSET 0.014142 0.001733 0.014142
								CHANNELS 3 Yrotation Zrotation Xrotation
								JOINT L1MidPhalanx
								{
									OFFSET 0.04 0 0
									CHANNELS 1 Zrotation
									JOINT L1DistPhalanx
									{
										OFFSET 0.035 0 0
										CHANNELS 1 Zrotation
										End Site
										{
											OFFSET 0.029 -0 -0
										}
									}
								}
							}
							JOINT L2ProxPhalanx
							{
								OFFSET 0.0821037 0.001578 0.0219996
								CHANNELS 2 Yrotation Zrotation
								JOINT L2MidPhalanx
								{
									OFFSET 0.04 0 0
									CHANNELS 1 Zrotation
									JOINT L2DistPhalanx
									{
										OFFSET 0.028 0 0
										CHANNELS 1 Zrotation
										End Site
										{
											OFFSET 0.02 -0 -0
										}
									}
								}
							}
							JOINT L3ProxPhalanx
							{
								OFFSET 0.083 0 0
								CHANNELS 2 Yrotation Zrotation
								JOINT L3MidPhalanx
								{
									OFFSET 0.053 0 0
									CHANNELS 1 Zrotation
									JOINT L3DistPhalanx
									{
										OFFSET 0.03 0 0
										CHANNELS 1 Zrotation
										End Site
										{
											OFFSET 0.023 -0 -0
										}
									}
								}
							}
							JOINT L4ProxPhalanx
							{
								OFFSET 0.077274 -0.000761 -0.0207055
								CHANNELS 2 Yrotation Zrotation
								JOINT L4MidPhalanx
								{
									OFFSET 0.05 0 0
									CHANNELS 1 Zrotation
									JOINT L4DistPhalanx
									{
										OFFSET 0.03 0 0
										CHANNELS 1 Zrotation
										End Site
										{
											OFFSET 0.023 -0 -0
										}
									}
								}
							}
							JOINT L5ProxPhalanx
							{
								OFFSET 0.0675499 -0.001644 -0.039
								CHANNELS 2 Yrotation Zrotation
								JOINT L5MidPhalanx
								{
									OFFSET 0.04 0 0
									CHANNELS 1 Zrotation
									JOINT L5DistPhalanx
									{
										OFFSET 0.021 0 0
										CHANNELS 1 Zrotation
										End Site
										{
											OFFSET 0.022 -0 -0
										}
									}
								}
							}
						}
					}
				}
			}
			JOINT Right_Collar
			{
				OFFSET -0.02282 0.250342 0.017193
				CHANNELS 2 Yrotation Zrotation
				JOINT Right_Shoulder
				{
					OFFSET -0.15421 0 0
					CHANNELS 3 Xrotation Yrotation Zrotation
					JOINT Right_Forearm
					{
						OFFSET -0.265212 0 0
						CHANNELS 2 Yrotation Xrotation
						JOINT Right_Hand
						{
							OFFSET -0.27571 3e-006 0
							CHANNELS 2 Zrotation Yrotation
							JOINT R1ProxPhalanx
							{
								OFFSET -0.014142 0.001733 0.014142
								CHANNELS 3 Yrotation Zrotation Xrotation
								JOINT R1MidPhalanx
								{
									OFFSET -0.04 0 0
									CHANNELS 1 Zrotation
									JOINT R1DistPhalanx
									{
										OFFSET -0.035 0 0
										CHANNELS 1 Zrotation
										End Site
										{
											OFFSET -0.029 -0 -0
										}
									}
								}
							}
							JOINT R2ProxPhalanx
							{
								OFFSET -0.0821037 0.001578 0.0219996
								CHANNELS 2 Yrotation Zrotation
								JOINT R2MidPhalanx
								{
									OFFSET -0.04 0 0
									CHANNELS 1 Zrotation
									JOINT R2DistPhalanx
									{
										OFFSET -0.028 0 0
										CHANNELS 1 Zrotation
										End Site
										{
											OFFSET -0.02 -0 -0
										}
									}
								}
							}
							JOINT R3ProxPhalanx
							{
								OFFSET -0.083 0 0
								CHANNELS 2 Yrotation Zrotation
								JOINT R3MidPhalanx
								{
									OFFSET -0.053 0 0
									CHANNELS 1 Zrotation
									JOINT R3DistPhalanx
									{
										OFFSET -0.03 0 0
										CHANNELS 1 Zrotation
										End Site
										{
											OFFSET -0.023 -0 -0
										}
									}
								}
							}
							JOINT R4ProxPhalanx
							{
								OFFSET -0.077274 -0.000761 -0.0207055
								CHANNELS 2 Yrotation Zrotation
								JOINT R4MidPhalanx
								{
									OFFSET -0.05 0 0
									CHANNELS 1 Zrotation
									JOINT R4DistPhalanx
									{
										OFFSET -0.03 0 0
										CHANNELS 1 Zrotation
										End Site
										{
											OFFSET -0.023 -0 -0
										}
									}
								}
							}
							JOINT R5ProxPhalanx
							{
								OFFSET -0.0675499 -0.001644 -0.039
								CHANNELS 2 Yrotation Zrotation
								JOINT R5MidPhalanx
								{
									OFFSET -0.04 0 0
									CHANNELS 1 Zrotation
									JOINT R5DistPhalanx
									{
										OFFSET -0.021 0 0
										CHANNELS 1 Zrotation
										End Site
										{
											OFFSET -0.022 -0 -0
										}
									}
								}
							}
						}
					}
				}
			}
		}
	}
	JOINT Left_Thigh
	{
		OFFSET 0.1118 -0.1612 -0.0442
		CHANNELS 3 Xrotation Zrotation Yrotation
		JOINT Left_Shin
		{
			OFFSET 0 -0.477856 0
			CHANNELS 1 Xrotation
			JOINT Left_Foot
			{
				OFFSET 0 -0.431952 0
				CHANNELS 2 Xrotation Zrotation
				JOINT Left_Toe
				{
					OFFSET 0 -0.0442 0.119
					CHANNELS 1 Xrotation
					End Site
					{
						OFFSET -0 -0 0.07
					}
				}
			}
		}
	}
	JOINT Right_Thigh
	{
		OFFSET -0.1118 -0.1612 -0.0442
		CHANNELS 3 Xrotation Zrotation Yrotation
		JOINT Right_Shin
		{
			OFFSET 0 -0.477856 0
			CHANNELS 1 Xrotation
			JOINT Right_Foot
			{
				OFFSET 0 -0.431952 0
				CHANNELS 2 Xrotation Zrotation
				JOINT Right_Toe
				{
					OFFSET 0 -0.0442 0.119
					CHANNELS 1 Xrotation
					End Site
					{
						OFFSET -0 -0 0.07
					}
				}
			}
		}
	}
}
MOTION
Frames: 10
Frame Time: 0.009975
-0.104458 -0.0600612 0.0474806 2.83454e-013 4.76289e-008 -5.10927e-006 0 0 0 0 0 0 0 0 0 0 0 0 0 0 -0 0 -0 0 0 0 0 2.69588 -69.4733 147.023 -7.45011 0.650765 2.99439 -34.6773 -5.56353 -9.13931 -0.114649 -1.35527 -3.42801 -4.12002 -2.27997 2.19649 -11.2155 -2.08402 4.28779 5.07749 -48.6964 31.3259 0 0 -0 0 -0 0 0 0 0 37.9386 28.008 73.698 26.2405 28.4472 13.118 18.2167 29.0248 19.6359 0 22.4358 32.6146 28.1246 -8.63175 30.7051 32.2053 23.7634 -7.83088 26.7354 35.1526 30.0193 0.522693 -0.462344 -0.00421795 0.0240216 -0.546698 0.462368 0 0.534099 -0.462343 -0.00430998 0 -0.534081 0.462368 0 
-0.104458 -0.0600612 0.0474806 2.83454e-013 4.76289e-008 -5.10927e-006 0 0 0 0 0 0 0 0 0 0 0 0 0 0 -0 0 -0 0 0 0 0 2.69588 -69.4733 147.023 -7.45011 0.650765 2.99439 -34.6773 -5.56353 -9.13931 -0.114649 -1.35527 -3.42801 -4.12002 -2.27997 2.19649 -11.2155 -2.08402 4.28779 5.07749 -48.6964 31.3259 0 0 -0 0 -0 0 0 0 0 37.9386 28.008 73.698 26.2405 28.4472 13.118 18.2167 29.0248 19.6359 0 22.4358 32.6146 28.1246 -8.63175 30.7051 32.2053 23.7634 -7.83088 26.7354 35.1526 30.0193 0.522693 -0.462344 -0.00421795 0.0240216 -0.546698 0.462368 0 0.534099 -0.462343 -0.00430998 0 -0.534081 0.462368 0 
-0.101405 -0.0600522 0.0399668 -1.44785e-012 5.42994e-009 -5.08411e-006 0 -0 0 0 -0 0 0 -0 0 -0.710255 0.291068 -9.06586e-006 -1.3633 -22.9154 -13.7526 -24.8449 -29.5476 -37.7983 13.8588 12.1733 -6.66434 1.91914 -69.4141 146.204 -7.58786 0.547512 2.97443 -34.6539 -5.73572 -9.16861 -0.114089 -1.5085 -3.61087 -4.18942 -2.26163 2.02558 -11.3595 -2.1636 4.29617 4.93212 -48.6229 31.0693 1.3633 22.9154 -13.7526 24.8449 29.5476 37.7983 13.8588 -12.1733 6.66434 -1.91914 69.4141 146.204 7.58786 -0.547512 -2.97443 34.6539 5.73572 9.16861 0.114089 1.5085 3.61087 4.18942 2.26163 -2.02558 11.3595 2.1636 -4.29617 -4.93212 48.6229 -31.0693 0.0495386 -0.654628 -0.000567414 0.0239015 -0.0734369 0.654633 0 0.0608871 -0.654628 -0.000697397 2.40276e-006 -0.0608856 0.654633 0 
-0.10135 -0.060052 0.0391887 -1.45512e-012 5.45723e-009 -5.10966e-006 0 -0 0 0 -0 0 0 -0 0 -0.711984 0.290846 -2.04483e-010 -1.37006 -23.0306 -13.2354 -24.9997 -27.3451 -38.7342 13.9259 12.2344 -6.6977 2.69588 -69.4733 147.023 -7.45011 0.650765 2.99439 -34.6773 -5.56353 -9.13931 -0.114649 -1.35527 -3.42801 -4.12002 -2.27997 2.19649 -11.2155 -2.08402 4.28779 5.07749 -48.6964 31.3259 1.37006 23.0306 -13.2354 24.9997 27.3451 38.7342 13.9259 -12.2344 6.6977 -2.69588 69.4733 147.023 7.45011 -0.650765 -2.99439 34.6773 5.56353 9.13931 0.114649 1.35527 3.42801 4.12002 2.27997 -2.19649 11.2155 2.08402 -4.28779 -5.07749 48.6964 -31.3259 0.000477788 -0.658113 -5.48826e-006 0.0240216 -0.0244994 0.658118 0 0.0118834 -0.658113 -0.000136498 2.41484e-006 -0.011885 0.658118 0 
-0.10135 -0.060052 0.039183 -3.15618e-009 1.02653e-009 -5.10966e-006 0 -0 0 0 -0 0 0 -0 0 -0.71196 0.290828 -4.67499e-015 -1.37006 -23.0306 -13.2315 -24.9997 -27.3308 -38.7399 13.9259 12.2344 -6.6977 2.69588 -69.4733 147.023 -7.45011 0.650765 2.99439 -34.6773 -5.56353 -9.13931 -0.114649 -1.35527 -3.42801 -4.12002 -2.27997 2.19649 -11.2155 -2.08402 4.28779 5.07749 -48.6964 31.3259 1.37006 23.0306 -13.2315 24.9997 27.3308 38.7399 13.9259 -12.2344 6.6977 -2.69588 69.4733 147.023 7.45011 -0.650765 -2.99439 34.6773 5.56353 9.13931 0.114649 1.35527 3.42801 4.12002 2.27997 -2.19649 11.2155 2.08402 -4.28779 -5.07749 48.6964 -31.3259 0.000120845 -0.658116 -1.38907e-006 0.0240216 -0.0241425 0.658121 0 0.0115264 -0.658116 -0.000132397 2.41484e-006 -0.0115274 0.658121 0 
-0.10135 -0.060052 0.039183 1.04462e-009 1.02794e-009 -5.10966e-006 0 -0 0 0 -0 0 0 -0 0 -0.71196 0.290828 -0 -1.37006 -23.0306 -13.2315 -24.9997 -27.3308 -38.7399 13.9259 12.2344 -6.6977 2.69588 -69.4733 147.023 -7.45011 0.650765 2.99439 -34.6773 -5.56353 -9.13931 -0.114649 -1.35527 -3.42801 -4.12002 -2.27997 2.19649 -11.2155 -2.08402 4.28779 5.07749 -48.6964 31.3259 1.37006 23.0306 -13.2315 24.9997 27.3308 38.7399 13.9259 -12.2344 6.6977 -2.69588 69.4733 147.023 7.45011 -0.650765 -2.99439 34.6773 5.56353 9.13931 0.114649 1.35527 3.42801 4.12002 2.27997 -2.19649 11.2155 2.08402 -4.28779 -5.07749 48.6964 -31.3259 0.000121003 -0.658116 -1.39089e-006 0.0240216 -0.0241426 0.658121 0 0.0115266 -0.658116 -0.000132399 2.8176e-006 -0.0115275 0.658121 0 
-0.10135 -0.060052 0.039183 -2.16559e-009 1.02796e-009 -5.10966e-006 0 -0 0 0 -0 0 0 -0 0 -0.71196 0.290828 -3.88256e-019 -1.37006 -23.0306 -13.2315 -24.9997 -27.3308 -38.7399 13.9259 12.2344 -6.6977 2.69588 -69.4733 147.023 -7.45011 0.650765 2.99439 -34.6773 -5.56353 -9.13931 -0.114649 -1.35527 -3.42801 -4.12002 -2.27997 2.19649 -11.2155 -2.08402 4.28779 5.07749 -48.6964 31.3259 1.37006 23.0306 -13.2315 24.9997 27.3308 38.7399 13.9259 -12.2344 6.6977 -2.69588 69.4733 147.023 7.45011 -0.650765 -2.99439 34.6773 5.56353 9.13931 0.114649 1.35527 3.42801 4.12002 2.27997 -2.19649 11.2155 2.08402 -4.28779 -5.07749 48.6964 -31.3259 0.000121136 -0.658116 -1.39237e-006 0.0240216 -0.0241428 0.658121 0 0.011525 -0.658116 -0.00013238 4.24747e-008 -0.0115271 0.658121 0 
-0.10135 -0.060052 0.039183 -1.20475e-009 1.02795e-009 -5.10966e-006 0 -0 0 0 -0 0 0 -0 0 -0.71196 0.290828 -0 -1.37006 -23.0306 -13.2315 -24.9997 -27.3308 -38.7399 13.9259 12.2344 -6.6977 2.69588 -69.4733 147.023 -7.45011 0.650765 2.99439 -34.6773 -5.56353 -9.13931 -0.114649 -1.35527 -3.42801 -4.12002 -2.27997 2.19649 -11.2155 -2.08402 4.28779 5.07749 -48.6964 31.3259 1.37006 23.0306 -13.2315 24.9997 27.3308 38.7399 13.9259 -12.2344 6.6977 -2.69588 69.4733 147.023 7.45011 -0.650765 -2.99439 34.6773 5.56353 9.13931 0.114649 1.35527 3.42801 4.12002 2.27997 -2.19649 11.2155 2.08402 -4.28779 -5.07749 48.6964 -31.3259 0.000121099 -0.658116 -1.39197e-006 0.0240216 -0.0241427 0.658121 0 0.0115267 -0.658116 -0.000132399 1.67767e-006 -0.0115259 0.658121 0 
-0.10135 -0.060052 0.039183 5.03122e-009 1.02796e-009 -5.10966e-006 0 -0 0 0 -0 0 0 -0 0 -0.71196 0.290828 3.88256e-019 -1.37006 -23.0306 -13.2315 -24.9997 -27.3308 -38.7399 13.9259 12.2344 -6.6977 2.69588 -69.4733 147.023 -7.45011 0.650765 2.99439 -34.6773 -5.56353 -9.13931 -0.114649 -1.35527 -3.42801 -4.12002 -2.27997 2.19649 -11.2155 -2.08402 4.28779 5.07749 -48.6964 31.3259 1.37006 23.0306 -13.2315 24.9997 27.3308 38.7399 13.9259 -12.2344 6.6977 -2.69588 69.4733 147.023 7.45011 -0.650765 -2.99439 34.6773 5.56353 9.13931 0.114649 1.35527 3.42801 4.12002 2.27997 -2.19649 11.2155 2.08402 -4.28779 -5.07749 48.6964 -31.3259 0.000121148 -0.658116 -1.39259e-006 0.0240216 -0.0241428 0.658121 0 0.0115267 -0.658116 -0.000132399 1.70755e-006 -0.0115277 0.658121 0 
-0.10135 -0.060052 0.039183 -3.98423e-009 1.02795e-009 -5.10966e-006 0 -0 0 0 -0 0 0 -0 0 -0.71196 0.290828 -3.88256e-019 -1.37006 -23.0306 -13.2315 -24.9997 -27.3308 -38.7399 13.9259 12.2344 -6.6977 2.69588 -69.4733 147.023 -7.45011 0.650765 2.99439 -34.6773 -5.56353 -9.13931 -0.114649 -1.35527 -3.42801 -4.12002 -2.27997 2.19649 -11.2155 -2.08402 4.28779 5.07749 -48.6964 31.3259 1.37006 23.0306 -13.2315 24.9997 27.3308 38.7399 13.9259 -12.2344 6.6977 -2.69588 69.4733 147.023 7.45011 -0.650765 -2.99439 34.6773 5.56353 9.13931 0.114649 1.35527 3.42801 4.12002 2.27997 -2.19649 11.2155 2.08402 -4.28779 -5.07749 48.6964 -31.3259 0.000121124 -0.658116 -1.39221e-006 0.0240216 -0.0241427 0.658121 0 0.0115267 -0.658116 -0.000132399 2.41484e-006 -0.0115283 0.658121 0 
